<svg height="300" viewBox="0 0 300 300" width="300" xmlns="http://www.w3.org/2000/svg"><g fill="#fff" fill-rule="nonzero"><path d="m30 52c12.1502645 0 22-9.8497355 22-22s-9.8497355-22-22-22-22 9.8497355-22 22 9.8497355 22 22 22zm0-4c-9.9411255 0-18-8.0588745-18-18s8.0588745-18 18-18 18 8.0588745 18 18-8.0588745 18-18 18z"/><path d="m90 52c12.150264 0 22-9.8497355 22-22s-9.849736-22-22-22c-12.1502645 0-22 9.8497355-22 22s9.8497355 22 22 22zm0-4c-9.9411255 0-18-8.0588745-18-18s8.0588745-18 18-18 18 8.0588745 18 18-8.0588745 18-18 18z"/><path d="m45 32h31c1.1045695 0 2-.8954305 2-2s-.8954305-2-2-2h-31c-1.1045695 0-2 .8954305-2 2s.8954305 2 2 2z"/><path d="m150 52c12.150264 0 22-9.8497355 22-22s-9.849736-22-22-22-22 9.8497355-22 22 9.849736 22 22 22zm0-4c-9.941125 0-18-8.0588745-18-18s8.058875-18 18-18 18 8.0588745 18 18-8.058875 18-18 18z"/><path d="m105 32h31c1.104569 0 2-.8954305 2-2s-.895431-2-2-2h-31c-1.104569 0-2 .8954305-2 2s.895431 2 2 2z"/><path d="m210 52c12.150264 0 22-9.8497355 22-22s-9.849736-22-22-22-22 9.8497355-22 22 9.849736 22 22 22zm0-4c-9.941125 0-18-8.0588745-18-18s8.058875-18 18-18 18 8.0588745 18 18-8.058875 18-18 18z"/><path d="m165 32h31c1.104569 0 2-.8954305 2-2s-.895431-2-2-2h-31c-1.104569 0-2 .8954305-2 2s.895431 2 2 2z"/><path d="m270 52c12.150264 0 22-9.8497355 22-22s-9.849736-22-22-22-22 9.8497355-22 22 9.849736 22 22 22zm0-4c-9.941125 0-18-8.0588745-18-18s8.058875-18 18-18 18 8.0588745 18 18-8.058875 18-18 18z"/><path d="m225 32h31c1.104569 0 2-.8954305 2-2s-.895431-2-2-2h-31c-1.104569 0-2 .8954305-2 2s.895431 2 2 2z"/><path d="m87.5 44.5c0-1.1045695.8954305-2 2-2s2 .8954305 2 2v31c0 1.1045695-.8954305 2-2 2s-2-.8954305-2-2z"/><path d="m27.5 44.5c0-1.1045695.8954305-2 2-2s2 .8954305 2 2v31c0 1.1045695-.8954305 2-2 2s-2-.8954305-2-2z"/><path d="m207.5 44.5c0-1.1045695.895431-2 2-2s2 .8954305 2 2v31c0 1.1045695-.895431 2-2 2s-2-.8954305-2-2z"/><path d="m268.5 44.5c0-1.1045695.895431-2 2-2s2 .8954305 2 2v31c0 1.1045695-.895431 2-2 2s-2-.8954305-2-2z"/><path d="m148.5 44.5c0-1.1045695.895431-2 2-2s2 .8954305 2 2v31c0 1.1045695-.895431 2-2 2s-2-.8954305-2-2z"/><path d="m30 112c12.1502645 0 22-9.849736 22-22 0-12.1502645-9.8497355-22-22-22s-22 9.8497355-22 22c0 12.150264 9.8497355 22 22 22zm0-4c-9.9411255 0-18-8.0588745-18-18s8.0588745-18 18-18 18 8.0588745 18 18-8.0588745 18-18 18z"/><path d="m90 112c12.150264 0 22-9.849736 22-22 0-12.1502645-9.849736-22-22-22-12.1502645 0-22 9.8497355-22 22 0 12.150264 9.8497355 22 22 22zm0-4c-9.9411255 0-18-8.0588745-18-18s8.0588745-18 18-18 18 8.0588745 18 18-8.0588745 18-18 18z"/><path d="m45 92h31c1.1045695 0 2-.8954305 2-2s-.8954305-2-2-2h-31c-1.1045695 0-2 .8954305-2 2s.8954305 2 2 2z"/><path d="m150 112c12.150264 0 22-9.849736 22-22 0-12.1502645-9.849736-22-22-22s-22 9.8497355-22 22c0 12.150264 9.849736 22 22 22zm0-4c-9.941125 0-18-8.0588745-18-18s8.058875-18 18-18 18 8.0588745 18 18-8.058875 18-18 18z"/><path d="m105 92h31c1.104569 0 2-.8954305 2-2s-.895431-2-2-2h-31c-1.104569 0-2 .8954305-2 2s.895431 2 2 2z"/><path d="m210 112c12.150264 0 22-9.849736 22-22 0-12.1502645-9.849736-22-22-22s-22 9.8497355-22 22c0 12.150264 9.849736 22 22 22zm0-4c-9.941125 0-18-8.0588745-18-18s8.058875-18 18-18 18 8.0588745 18 18-8.058875 18-18 18z"/><path d="m165 92h31c1.104569 0 2-.8954305 2-2s-.895431-2-2-2h-31c-1.104569 0-2 .8954305-2 2s.895431 2 2 2z"/><path d="m270 112c12.150264 0 22-9.849736 22-22 0-12.1502645-9.849736-22-22-22s-22 9.8497355-22 22c0 12.150264 9.849736 22 22 22zm0-4c-9.941125 0-18-8.0588745-18-18s8.058875-18 18-18 18 8.0588745 18 18-8.058875 18-18 18z"/><path d="m225 92h31c1.104569 0 2-.8954305 2-2s-.895431-2-2-2h-31c-1.104569 0-2 .8954305-2 2s.895431 2 2 2z"/><path d="m87.5 104.5c0-1.104569.8954305-2 2-2s2 .895431 2 2v31c0 1.104569-.8954305 2-2 2s-2-.895431-2-2z"/><path d="m27.5 104.5c0-1.104569.8954305-2 2-2s2 .895431 2 2v31c0 1.104569-.8954305 2-2 2s-2-.895431-2-2z"/><path d="m208.5 104.5c0-1.104569.895431-2 2-2s2 .895431 2 2v31c0 1.104569-.895431 2-2 2s-2-.895431-2-2z"/><path d="m268.5 104.5c0-1.104569.895431-2 2-2s2 .895431 2 2v31c0 1.104569-.895431 2-2 2s-2-.895431-2-2z"/><path d="m148.5 104.5c0-1.104569.895431-2 2-2s2 .895431 2 2v31c0 1.104569-.895431 2-2 2s-2-.895431-2-2z"/><path d="m30 172c12.1502645 0 22-9.849736 22-22s-9.8497355-22-22-22-22 9.849736-22 22 9.8497355 22 22 22zm0-4c-9.9411255 0-18-8.058875-18-18s8.0588745-18 18-18 18 8.058875 18 18-8.0588745 18-18 18z"/><path d="m90 172c12.150264 0 22-9.849736 22-22s-9.849736-22-22-22c-12.1502645 0-22 9.849736-22 22s9.8497355 22 22 22zm0-4c-9.9411255 0-18-8.058875-18-18s8.0588745-18 18-18 18 8.058875 18 18-8.0588745 18-18 18z"/><path d="m45 152h31c1.1045695 0 2-.895431 2-2s-.8954305-2-2-2h-31c-1.1045695 0-2 .895431-2 2s.8954305 2 2 2z"/><path d="m150 172c12.150264 0 22-9.849736 22-22s-9.849736-22-22-22-22 9.849736-22 22 9.849736 22 22 22zm0-4c-9.941125 0-18-8.058875-18-18s8.058875-18 18-18 18 8.058875 18 18-8.058875 18-18 18z"/><path d="m105 152h31c1.104569 0 2-.895431 2-2s-.895431-2-2-2h-31c-1.104569 0-2 .895431-2 2s.895431 2 2 2z"/><path d="m210 172c12.150264 0 22-9.849736 22-22s-9.849736-22-22-22-22 9.849736-22 22 9.849736 22 22 22zm0-4c-9.941125 0-18-8.058875-18-18s8.058875-18 18-18 18 8.058875 18 18-8.058875 18-18 18z"/><path d="m165 152h31c1.104569 0 2-.895431 2-2s-.895431-2-2-2h-31c-1.104569 0-2 .895431-2 2s.895431 2 2 2z"/><path d="m270 172c12.150264 0 22-9.849736 22-22s-9.849736-22-22-22-22 9.849736-22 22 9.849736 22 22 22zm0-4c-9.941125 0-18-8.058875-18-18s8.058875-18 18-18 18 8.058875 18 18-8.058875 18-18 18z"/><path d="m225 152h31c1.104569 0 2-.895431 2-2s-.895431-2-2-2h-31c-1.104569 0-2 .895431-2 2s.895431 2 2 2z"/><path d="m87.5 164.5c0-1.104569.8954305-2 2-2s2 .895431 2 2v31c0 1.104569-.8954305 2-2 2s-2-.895431-2-2z"/><path d="m27.5 164.5c0-1.104569.8954305-2 2-2s2 .895431 2 2v31c0 1.104569-.8954305 2-2 2s-2-.895431-2-2z"/><path d="m208.5 164.5c0-1.104569.895431-2 2-2s2 .895431 2 2v31c0 1.104569-.895431 2-2 2s-2-.895431-2-2z"/><path d="m268.5 164.5c0-1.104569.895431-2 2-2s2 .895431 2 2v31c0 1.104569-.895431 2-2 2s-2-.895431-2-2z"/><path d="m148.5 164.5c0-1.104569.895431-2 2-2s2 .895431 2 2v31c0 1.104569-.895431 2-2 2s-2-.895431-2-2z"/><path d="m30 232c12.1502645 0 22-9.849736 22-22s-9.8497355-22-22-22-22 9.849736-22 22 9.8497355 22 22 22zm0-4c-9.9411255 0-18-8.058875-18-18s8.0588745-18 18-18 18 8.058875 18 18-8.0588745 18-18 18z"/><path d="m90 232c12.150264 0 22-9.849736 22-22s-9.849736-22-22-22c-12.1502645 0-22 9.849736-22 22s9.8497355 22 22 22zm0-4c-9.9411255 0-18-8.058875-18-18s8.0588745-18 18-18 18 8.058875 18 18-8.0588745 18-18 18z"/><path d="m45 212h31c1.1045695 0 2-.895431 2-2s-.8954305-2-2-2h-31c-1.1045695 0-2 .895431-2 2s.8954305 2 2 2z"/><path d="m150 232c12.150264 0 22-9.849736 22-22s-9.849736-22-22-22-22 9.849736-22 22 9.849736 22 22 22zm0-4c-9.941125 0-18-8.058875-18-18s8.058875-18 18-18 18 8.058875 18 18-8.058875 18-18 18z"/><path d="m105 212h31c1.104569 0 2-.895431 2-2s-.895431-2-2-2h-31c-1.104569 0-2 .895431-2 2s.895431 2 2 2z"/><path d="m210 232c12.150264 0 22-9.849736 22-22s-9.849736-22-22-22-22 9.849736-22 22 9.849736 22 22 22zm0-4c-9.941125 0-18-8.058875-18-18s8.058875-18 18-18 18 8.058875 18 18-8.058875 18-18 18z"/><path d="m165 212h31c1.104569 0 2-.895431 2-2s-.895431-2-2-2h-31c-1.104569 0-2 .895431-2 2s.895431 2 2 2z"/><path d="m270 232c12.150264 0 22-9.849736 22-22s-9.849736-22-22-22-22 9.849736-22 22 9.849736 22 22 22zm0-4c-9.941125 0-18-8.058875-18-18s8.058875-18 18-18 18 8.058875 18 18-8.058875 18-18 18z"/><path d="m225 212h31c1.104569 0 2-.895431 2-2s-.895431-2-2-2h-31c-1.104569 0-2 .895431-2 2s.895431 2 2 2z"/><path d="m87.5 224.5c0-1.104569.8954305-2 2-2s2 .895431 2 2v31c0 1.104569-.8954305 2-2 2s-2-.895431-2-2z"/><path d="m27.5 224.5c0-1.104569.8954305-2 2-2s2 .895431 2 2v31c0 1.104569-.8954305 2-2 2s-2-.895431-2-2z"/><path d="m208.5 224.5c0-1.104569.895431-2 2-2s2 .895431 2 2v31c0 1.104569-.895431 2-2 2s-2-.895431-2-2z"/><path d="m268.5 224.5c0-1.104569.895431-2 2-2s2 .895431 2 2v31c0 1.104569-.895431 2-2 2s-2-.895431-2-2z"/><path d="m148.5 224.5c0-1.104569.895431-2 2-2s2 .895431 2 2v31c0 1.104569-.895431 2-2 2s-2-.895431-2-2z"/><path d="m30 292c12.1502645 0 22-9.849736 22-22s-9.8497355-22-22-22-22 9.849736-22 22 9.8497355 22 22 22zm0-4c-9.9411255 0-18-8.058875-18-18s8.0588745-18 18-18 18 8.058875 18 18-8.0588745 18-18 18z"/><path d="m90 292c12.150264 0 22-9.849736 22-22s-9.849736-22-22-22c-12.1502645 0-22 9.849736-22 22s9.8497355 22 22 22zm0-4c-9.9411255 0-18-8.058875-18-18s8.0588745-18 18-18 18 8.058875 18 18-8.0588745 18-18 18z"/><path d="m45 272h31c1.1045695 0 2-.895431 2-2s-.8954305-2-2-2h-31c-1.1045695 0-2 .895431-2 2s.8954305 2 2 2z"/><path d="m150 292c12.150264 0 22-9.849736 22-22s-9.849736-22-22-22-22 9.849736-22 22 9.849736 22 22 22zm0-4c-9.941125 0-18-8.058875-18-18s8.058875-18 18-18 18 8.058875 18 18-8.058875 18-18 18z"/><path d="m105 272h31c1.104569 0 2-.895431 2-2s-.895431-2-2-2h-31c-1.104569 0-2 .895431-2 2s.895431 2 2 2z"/><path d="m210 292c12.150264 0 22-9.849736 22-22s-9.849736-22-22-22-22 9.849736-22 22 9.849736 22 22 22zm0-4c-9.941125 0-18-8.058875-18-18s8.058875-18 18-18 18 8.058875 18 18-8.058875 18-18 18z"/><path d="m165 272h31c1.104569 0 2-.895431 2-2s-.895431-2-2-2h-31c-1.104569 0-2 .895431-2 2s.895431 2 2 2z"/><path d="m270 292c12.150264 0 22-9.849736 22-22s-9.849736-22-22-22-22 9.849736-22 22 9.849736 22 22 22zm0-4c-9.941125 0-18-8.058875-18-18s8.058875-18 18-18 18 8.058875 18 18-8.058875 18-18 18z"/><path d="m225 272h31c1.104569 0 2-.895431 2-2s-.895431-2-2-2h-31c-1.104569 0-2 .895431-2 2s.895431 2 2 2z"/></g></svg>