<svg height="300" viewBox="0 0 300 300" width="300" xmlns="http://www.w3.org/2000/svg"><g fill="none" fill-rule="evenodd"><g fill="#fff" fill-rule="nonzero"><path d="m46 30h208c8.836556 0 16 7.163444 16 16v208c0 8.836556-7.163444 16-16 16h-208c-8.836556 0-16-7.163444-16-16v-208c0-8.836556 7.163444-16 16-16zm0 8c-4.418278 0-8 3.581722-8 8v208c0 4.418278 3.581722 8 8 8h208c4.418278 0 8-3.581722 8-8v-208c0-4.418278-3.581722-8-8-8z"/><path d="m110 30h80v240h-80zm8 8v224h64v-224z"/><path d="m30 110h240v80h-240zm8 8v64h224v-64z"/></g><text fill="#000" font-family="AppleColorEmoji, Apple Color Emoji" font-size="50"><tspan x="201" y="244">✅</tspan></text></g></svg>