<svg height="360" viewBox="0 0 640 360" width="640" xmlns="http://www.w3.org/2000/svg"><g fill="none" fill-rule="evenodd"><path d="m186 45h90v90h-90z" fill="#5fba00"/><path d="m275 135h90v90h-90z" fill="#5fba00"/><path d="m185 135h90v90h-90z" fill="#91ba00"/><path d="m275 45h90v90h-90z" fill="#b8ba00"/><path d="m365 135h90v90h-90z" fill="#ba9400"/><path d="m185 225h90v90h-90z" fill="#ba9400"/><path d="m365 45h90v90h-90z" fill="#ba6100"/><path d="m276 225h90v90h-90z" fill="#ba3d00"/><path d="m365 225h90v90h-90z" fill="#ba006a"/><g fill="#fff"><path d="m181 45c0-2.209139 1.790861-4 4-4h270c2.209139 0 4 1.790861 4 4v270c0 2.209139-1.790861 4-4 4h-270c-2.209139 0-4-1.790861-4-4zm8 4v262h262v-262z" fill-rule="nonzero"/><path d="m271 41h98v278h-98zm8 8v262h82v-262z" fill-rule="nonzero"/><path d="m459 131v98h-278v-98zm-8 8h-262v82h262z" fill-rule="nonzero"/><text font-family="Metropolis-ExtraLight, Metropolis" font-size="50"><tspan x="312" y="196">1</tspan></text><text font-family="Metropolis-ExtraLight, Metropolis" font-size="50"><tspan x="222" y="108">1</tspan></text><text font-family="Metropolis-ExtraLight, Metropolis" font-size="50"><tspan x="215" y="288">4</tspan></text><text font-family="Metropolis-ExtraLight, Metropolis" font-size="50"><tspan x="305" y="288">6</tspan></text><text font-family="Metropolis-ExtraLight, Metropolis" font-size="50"><tspan x="397" y="288">8</tspan></text><text font-family="Metropolis-ExtraLight, Metropolis" font-size="50"><tspan x="306" y="108">3</tspan></text><text font-family="Metropolis-ExtraLight, Metropolis" font-size="50"><tspan x="397" y="108">5</tspan></text><text font-family="Metropolis-ExtraLight, Metropolis" font-size="50"><tspan x="397" y="196">4</tspan></text><text font-family="Metropolis-ExtraLight, Metropolis" font-size="50"><tspan x="215" y="196">2</tspan></text></g></g></svg>