<svg height="300" viewBox="0 0 300 300" width="300" xmlns="http://www.w3.org/2000/svg"><g fill="#fff" fill-rule="evenodd"><path d="m10 14c0-2.209139 1.790861-4 4-4h270c2.209139 0 4 1.790861 4 4v270c0 2.209139-1.790861 4-4 4h-270c-2.209139 0-4-1.790861-4-4zm8 4v262h262v-262z" fill-rule="nonzero"/><path d="m100 10h98v278h-98zm8 8v262h82v-262z" fill-rule="nonzero"/><path d="m288 100v98h-278v-98zm-8 8h-262v82h262z" fill-rule="nonzero"/><g font-family="Metropolis-ExtraLight, Metropolis" font-size="50"><text><tspan x="141" y="165">1</tspan></text><text><tspan x="51" y="77">1</tspan></text><text><tspan x="44" y="257">4</tspan></text><text><tspan x="134" y="257">6</tspan></text><text><tspan x="226" y="257">8</tspan></text><text><tspan x="135" y="77">3</tspan></text><text><tspan x="226" y="77">5</tspan></text><text><tspan x="226" y="165">4</tspan></text><text><tspan x="44" y="165">2</tspan></text></g></g></svg>