<svg height="360" viewBox="0 0 640 360" width="640" xmlns="http://www.w3.org/2000/svg"><g fill="#fff" fill-rule="evenodd"><g fill-rule="nonzero"><path d="m136.5 143.875c16.286068 0 29.5-13.089272 29.5-29.25 0-16.1607278-13.213932-29.25-29.5-29.25s-29.5 13.0892722-29.5 29.25c0 16.160728 13.213932 29.25 29.5 29.25zm0-6c-12.985024 0-23.5-10.415778-23.5-23.25s10.514976-23.25 23.5-23.25 23.5 10.415778 23.5 23.25-10.514976 23.25-23.5 23.25z"/><path d="m504 122c16.022718 0 29-13.102063 29-29.25 0-16.1479366-12.977282-29.25-29-29.25s-29 13.1020634-29 29.25c0 16.147937 12.977282 29.25 29 29.25zm0-6c-12.696089 0-23-10.402987-23-23.25 0-12.8470128 10.303911-23.25 23-23.25s23 10.4029872 23 23.25c0 12.847013-10.303911 23.25-23 23.25z"/><path d="m381.5 104.5c16.286068 0 29.5-13.0892722 29.5-29.25s-13.213932-29.25-29.5-29.25-29.5 13.0892722-29.5 29.25 13.213932 29.25 29.5 29.25zm0-6c-12.985024 0-23.5-10.4157784-23.5-23.25s10.514976-23.25 23.5-23.25 23.5 10.4157784 23.5 23.25-10.514976 23.25-23.5 23.25z"/><path d="m259 122c16.022718 0 29-13.102063 29-29.25 0-16.1479366-12.977282-29.25-29-29.25s-29 13.1020634-29 29.25c0 16.147937 12.977282 29.25 29 29.25zm0-6c-12.696089 0-23-10.402987-23-23.25 0-12.8470128 10.303911-23.25 23-23.25s23 10.4029872 23 23.25c0 12.847013-10.303911 23.25-23 23.25z"/><path d="m504 209.5c16.022718 0 29-13.102063 29-29.25s-12.977282-29.25-29-29.25-29 13.102063-29 29.25 12.977282 29.25 29 29.25zm0-6c-12.696089 0-23-10.402987-23-23.25s10.303911-23.25 23-23.25 23 10.402987 23 23.25-10.303911 23.25-23 23.25z"/><path d="m381.5 244.5c16.286068 0 29.5-13.089272 29.5-29.25s-13.213932-29.25-29.5-29.25-29.5 13.089272-29.5 29.25 13.213932 29.25 29.5 29.25zm0-6c-12.985024 0-23.5-10.415778-23.5-23.25s10.514976-23.25 23.5-23.25 23.5 10.415778 23.5 23.25-10.514976 23.25-23.5 23.25z"/><path d="m381.5 174.5c16.286068 0 29.5-13.089272 29.5-29.25s-13.213932-29.25-29.5-29.25-29.5 13.089272-29.5 29.25 13.213932 29.25 29.5 29.25zm0-6c-12.985024 0-23.5-10.415778-23.5-23.25s10.514976-23.25 23.5-23.25 23.5 10.415778 23.5 23.25-10.514976 23.25-23.5 23.25z"/><path d="m259 209.5c16.022718 0 29-13.102063 29-29.25s-12.977282-29.25-29-29.25-29 13.102063-29 29.25 12.977282 29.25 29 29.25zm0-6c-12.696089 0-23-10.402987-23-23.25s10.303911-23.25 23-23.25 23 10.402987 23 23.25-10.303911 23.25-23 23.25z"/><path d="m136.5 266.375c16.286068 0 29.5-13.089272 29.5-29.25s-13.213932-29.25-29.5-29.25-29.5 13.089272-29.5 29.25 13.213932 29.25 29.5 29.25zm0-6c-12.985024 0-23.5-10.415778-23.5-23.25s10.514976-23.25 23.5-23.25 23.5 10.415778 23.5 23.25-10.514976 23.25-23.5 23.25z"/><path d="m504 297c16.022718 0 29-13.102063 29-29.25s-12.977282-29.25-29-29.25-29 13.102063-29 29.25 12.977282 29.25 29 29.25zm0-6c-12.696089 0-23-10.402987-23-23.25s10.303911-23.25 23-23.25 23 10.402987 23 23.25-10.303911 23.25-23 23.25z"/><path d="m381.5 314.5c16.286068 0 29.5-13.089272 29.5-29.25s-13.213932-29.25-29.5-29.25-29.5 13.089272-29.5 29.25 13.213932 29.25 29.5 29.25zm0-6c-12.985024 0-23.5-10.415778-23.5-23.25s10.514976-23.25 23.5-23.25 23.5 10.415778 23.5 23.25-10.514976 23.25-23.5 23.25z"/><path d="m259 297c16.022718 0 29-13.102063 29-29.25s-12.977282-29.25-29-29.25-29 13.102063-29 29.25 12.977282 29.25 29 29.25zm0-6c-12.696089 0-23-10.402987-23-23.25s10.303911-23.25 23-23.25 23 10.402987 23 23.25-10.303911 23.25-23 23.25z"/><path d="m151.206566 117.02991 88 65.625c1.328195.990487 3.207858.71672 4.198344-.611476.990487-1.328195.71672-3.207858-.611476-4.198344l-88-65.625c-1.328195-.990487-3.207858-.71672-4.198344.611476-.990487 1.328195-.71672 3.207858.611476 4.198344z"/><path d="m150.417998 116.152504 88 148.75c.843617 1.426 2.683505 1.898115 4.109506 1.054498 1.426-.843617 1.898115-2.683505 1.054498-4.109506l-88-148.75c-.843617-1.426-2.683505-1.898115-4.109506-1.054498-1.426.843617-1.898115 2.683505-1.054498 4.109506z"/><path d="m153.723714 117.536398 88-21.875c1.607921-.3996962 2.58738-2.0271913 2.187684-3.635112s-2.027191-2.5873802-3.635112-2.187684l-88 21.875c-1.607921.399696-2.58738 2.027191-2.187684 3.635112s2.027191 2.58738 3.635112 2.187684z"/><path d="m276.022603 95.6891763 85.578431-17.5c1.623263-.3319421 2.670085-1.9169485 2.338142-3.5402108-.331942-1.6232622-1.916948-2.670084-3.54021-2.3381418l-85.578432 17.5c-1.623262.3319421-2.670084 1.9169485-2.338142 3.5402108.331942 1.6232622 1.916949 2.670084 3.540211 2.3381418z"/><path d="m276.457848 183.065338 85.578431-31.5c1.554868-.572322 2.35138-2.296749 1.779059-3.851617-.572322-1.554868-2.296749-2.35138-3.851617-1.779059l-85.578431 31.5c-1.554868.572322-2.35138 2.296749-1.779059 3.851617s2.296749 2.35138 3.851617 1.779059z"/><path d="m277.747025 182.145323 85.578432-104.9999997c1.046758-1.2843143.854181-3.174022-.430134-4.2207801-1.284314-1.0467582-3.174022-.8541809-4.22078.4301335l-85.578431 105.0000003c-1.046758 1.284314-.854181 3.174022.430133 4.22078 1.284315 1.046758 3.174022.854181 4.22078-.430134z"/><path d="m276.933952 269.466906 88.576684-51.625c1.431471-.834301 1.915572-2.671072 1.08127-4.102542-.834301-1.431471-2.671072-1.915572-4.102542-1.08127l-88.576684 51.625c-1.431471.834301-1.915572 2.671072-1.08127 4.102542.834301 1.431471 2.671072 1.915572 4.102542 1.08127z"/><path d="m277.851008 268.635064 85.578431-118.125c.972057-1.341742.672367-3.217446-.669375-4.189503s-3.217446-.672367-4.189503.669375l-85.578431 118.125c-.972057 1.341742-.672368 3.217446.669374 4.189503 1.341743.972057 3.217447.672367 4.189504-.669375z"/><path d="m278.160814 268.098329 85.578432-191.6250004c.675625-1.5128436-.003074-3.2869486-1.515917-3.9625743-1.512844-.6756258-3.286949.0030734-3.962575 1.5159171l-85.578431 191.6249996c-.675626 1.512844.003073 3.286949 1.515917 3.962575 1.512844.675625 3.286949-.003074 3.962574-1.515917z"/><path d="m274.347548 183.051157 85.578432 32.8125c1.547036.593165 3.282012-.1801 3.875177-1.727137.593165-1.547036-.1801-3.282012-1.727137-3.875177l-85.578431-32.8125c-1.547036-.593165-3.282012.1801-3.875177 1.727137-.593165 1.547036.1801 3.282012 1.727136 3.875177z"/><path d="m273.073421 182.117138 85.578432 107.625c1.031192 1.296846 2.918439 1.512201 4.215285.481009s1.512201-2.918439.481009-4.215285l-85.578431-107.625c-1.031192-1.296846-2.91844-1.512201-4.215286-.481009-1.296845 1.031192-1.5122 2.918439-.481009 4.215285z"/><path d="m274.706613 269.788561 85.578431 21c1.609116.394859 3.233658-.58949 3.628517-2.198605.394859-1.609116-.58949-3.233658-2.198605-3.628517l-85.578432-21c-1.609115-.394859-3.233657.58949-3.628516 2.198605-.39486 1.609116.58949 3.233658 2.198605 3.628517z"/><path d="m402.100159 290.79535 85.586538-20.125c1.612865-.379252 2.612906-1.994182 2.233653-3.607047-.379252-1.612865-1.994182-2.612906-3.607047-2.233653l-85.586539 20.125c-1.612865.379252-2.612905 1.994182-2.233653 3.607047.379253 1.612865 1.994183 2.612906 3.607048 2.233653z"/><path d="m403.761523 289.742247 85.586538-107.625c1.031252-1.296799.815984-3.184056-.480814-4.215308-1.296799-1.031252-3.184056-.815984-4.215308.480814l-85.586538 107.625c-1.031252 1.296799-.815984 3.184056.480814 4.215308s3.184056.815984 4.215308-.480814z"/><path d="m404.160798 289.080048 85.586539-195.1249998c.665529-1.5173121-.024977-3.2868551-1.542289-3.9523849-1.517312-.6655297-3.286855.0249763-3.952385 1.5422885l-85.586538 195.1250002c-.66553 1.517312.024976 3.286855 1.542288 3.952385 1.517312.665529 3.286855-.024977 3.952385-1.542289z"/><path d="m402.549008 218.026785 85.586538-35c1.533576-.627145 2.268384-2.378755 1.641239-3.912331s-2.378755-2.268384-3.912331-1.641239l-85.586539 35c-1.533576.627145-2.268383 2.378755-1.641238 3.912331.627144 1.533576 2.378755 2.268384 3.912331 1.641239z"/><path d="m403.872698 216.968184 85.586538-122.5c.948927-1.3581988.617147-3.2284936-.741052-4.1774204s-3.228494-.6171463-4.17742.7410524l-85.586539 122.5c-.948927 1.358199-.617146 3.228494.741053 4.17742 1.358198.948927 3.228493.617147 4.17742-.741052z"/><path d="m402.982098 147.807221 85.586538-52.4999996c1.412314-.8663337 1.854919-2.713543.988585-4.1258574-.866333-1.4123143-2.713543-1.8549191-4.125857-.9885854l-85.586538 52.5000004c-1.412315.866333-1.85492 2.713543-.988586 4.125857s2.713543 1.854919 4.125858.988585z"/><path d="m400.812482 78.1891875 85.586538 17.5c1.623269.331912 3.208256-.7149392 3.540168-2.3382077.331912-1.6232684-.71494-3.2082553-2.338208-3.5401673l-85.586539-17.5c-1.623268-.331912-3.208255.7149392-3.540167 2.3382077-.331912 1.6232684.714939 3.2082553 2.338208 3.5401673z"/><path d="m399.088093 77.1454312 85.586538 104.9999998c1.046818 1.284266 2.936534 1.476756 4.2208.429938s1.476756-2.936534.429938-4.2208l-85.586539-105.0000002c-1.046817-1.2842658-2.936534-1.4767555-4.2208-.4299377-1.284265 1.0468177-1.476755 2.9365343-.429937 4.2208001z"/><path d="m398.674259 76.4734253 85.586538 191.6249997c.67568 1.51282 2.449808 2.191457 3.962628 1.515778 1.51282-.67568 2.191457-2.449808 1.515778-3.962628l-85.586539-191.6250003c-.675679-1.5128198-2.449808-2.1914564-3.962628-1.5157773-1.51282.6756792-2.191456 2.4498081-1.515777 3.9626279z"/><path d="m400.277915 148.026785 85.586539 35c1.533576.627145 3.285186-.107663 3.912331-1.641239s-.107663-3.285186-1.641239-3.912331l-85.586538-35c-1.533576-.627145-3.285187.107663-3.912331 1.641239-.627145 1.533576.107662 3.285186 1.641238 3.912331z"/><path d="m398.960029 146.976461 85.586538 121.625c.953498 1.354994 2.8249 1.68047 4.179894.726972s1.68047-2.8249.726972-4.179894l-85.586539-121.625c-.953498-1.354994-2.8249-1.68047-4.179893-.726972-1.354994.953498-1.68047 2.8249-.726972 4.179894z"/><path d="m399.863952 217.818856 85.586538 51.625c1.41874.85577 3.262595.399394 4.118366-1.019346.85577-1.41874.399394-3.262595-1.019346-4.118366l-85.586539-51.625c-1.41874-.85577-3.262595-.399394-4.118365 1.019346-.855771 1.41874-.399394 3.262595 1.019346 4.118366z"/><path d="m273.778899 95.2603058 85.578431 56.0000002c1.386404.907221 3.245754.518768 4.152976-.867636.907221-1.386404.518768-3.245754-.867636-4.152976l-85.578431-55.9999998c-1.386404-.9072216-3.245755-.5187678-4.152976.8676358-.907222 1.3864036-.518768 3.2457542.867636 4.1529758z"/><path d="m272.992752 94.5078274 88.57619 122.4999996c.970821 1.342637 2.846249 1.644052 4.188885.673231 1.342637-.970821 1.644052-2.846249.673231-4.188885l-88.57619-122.5000004c-.970822-1.3426362-2.84625-1.6440518-4.188886-.6732306-1.342636.9708213-1.644052 2.8462491-.67323 4.1888854z"/><path d="m272.692093 93.9900513 88.576191 195.1249997c.684861 1.508685 2.463082 2.176527 3.971767 1.491665 1.508685-.684861 2.176527-2.463082 1.491665-3.971767l-88.57619-195.1250003c-.684862-1.5086851-2.463083-2.1765262-3.971768-1.4916648s-2.176526 2.4630822-1.491665 3.9717674z"/><path d="m156.105175 239.98844 84 26.25c1.581434.494198 3.264067-.387181 3.758265-1.968615s-.387181-3.264067-1.968615-3.758265l-84-26.25c-1.581434-.494198-3.264067.387181-3.758265 1.968615s.387181 3.264067 1.968615 3.758265z"/><path d="m158.681972 239.609144 84-56.875c1.371955-.928928 1.731099-2.794162.802172-4.166116-.928928-1.371955-2.794162-1.731099-4.166116-.802172l-84 56.875c-1.371955.928928-1.731099 2.794162-.802172 4.166116.928928 1.371955 2.794162 1.731099 4.166116.802172z"/><path d="m159.593045 238.633681 84-144.3750003c.833221-1.4320992.347735-3.2685044-1.084364-4.1017257-1.432099-.8332214-3.268505-.347735-4.101726 1.0843643l-84 144.3749997c-.833221 1.432099-.347735 3.268505 1.084364 4.101726s3.268505.347735 4.101726-1.084364z"/></g><text font-family="Metropolis-Bold, Metropolis" font-size="40" font-weight="bold" transform="matrix(0 -1 1 0 -105.5 255.5)"><tspan x="23.5" y="196.5">Input</tspan></text><text font-family="Metropolis-Bold, Metropolis" font-size="40" font-weight="bold" transform="matrix(0 1 -1 0 745 -385)"><tspan x="495" y="196">Output</tspan></text></g></svg>