<svg height="25.5" viewBox="-15 0 185 25.5" width="200" xmlns="http://www.w3.org/2000/svg"><path d="m6.59 13.76h-.01l-3.77-3.77 3.77-3.77h.01v-2.81l-3.18 3.17-3.41 3.41 5.18 5.18 1.41 1.41z" fill="#5973ff"/><path d="m15.71 19a26.59 26.59 0 0 1 -5.61-.77l.49-1.93s4 1 6.35.62 3.13-1.25 3.23-3c.07-1.26-.35-2.75-4.23-3.12-1.59-.15-3.83-.53-5-2a4 4 0 0 1 -.77-3.12c.52-4.11 4.18-4.4 5.75-4.53a20.75 20.75 0 0 1 6.05.63l-.51 1.92a19 19 0 0 0 -5.46-.7c-2.35.19-3.67.69-3.94 2.8a2.08 2.08 0 0 0 .35 1.63c.55.69 1.75 1.11 3.67 1.29 2.86.27 6.23 1.4 6 5.2-.22 4.07-3.72 4.67-4.88 4.87a9.37 9.37 0 0 1 -1.49.21z" fill="#5973ff"/><path d="m39.69 15a7 7 0 1 1 0-9.94h2.57a8.95 8.95 0 1 0 0 9.94z" fill="#eaedff"/><path d="m41.28 8.46h3v3h-3z" fill="#5973ff"/><g fill="#eaedff"><path d="m55.29 1.08a9 9 0 0 0 -5.55 1.39v-1.33h-2v17.86h2v-14a7 7 0 0 1 8.91-.64l1.16-1.61a8.93 8.93 0 0 0 -4.52-1.67z"/><path d="m70.72 16.95a7 7 0 1 1 4.17-12.53l-4.89 4.87-1.4 1.4h2.81l6.33-6.33-.7-.7a8.95 8.95 0 1 0 -6.33 15.27 8.89 8.89 0 0 0 6.29-2.61l-1.41-1.41a6.91 6.91 0 0 1 -4.87 2.04z"/><path d="m90.28 16.95a7 7 0 1 1 4.16-12.53l-4.87 4.87-1.4 1.4h2.83l6.33-6.33-.7-.7a8.95 8.95 0 1 0 -6.33 15.27 8.89 8.89 0 0 0 6.33-2.62l-1.43-1.4a6.91 6.91 0 0 1 -4.92 2.04z"/><path d="m108.24 1.06a9 9 0 0 0 -5 1.51v-1.52h-2v23.95h2v-7.56a8.95 8.95 0 1 0 5-16.38zm0 15.91a7 7 0 0 1 -5-2.11v-9.71a7 7 0 1 1 5 11.81z"/><path d="m126.36 19a26.59 26.59 0 0 1 -5.61-.77l.49-1.93s4 1 6.35.62 3.13-1.25 3.23-3c.07-1.26-.35-2.75-4.23-3.12-1.59-.15-3.83-.53-5-2a4 4 0 0 1 -.77-3.12c.52-4.11 4.18-4.41 5.75-4.53a20.76 20.76 0 0 1 6.05.63l-.51 1.92a19 19 0 0 0 -5.42-.7c-2.35.19-3.67.69-3.94 2.8a2.08 2.08 0 0 0 .35 1.63c.55.69 1.75 1.11 3.67 1.29 2.86.27 6.23 1.4 6 5.2-.22 4.07-3.72 4.67-4.88 4.87a9.37 9.37 0 0 1 -1.53.21z"/></g><path d="m136.31 13.76 3.77-3.77-3.77-3.77v-2.81l3.17 3.17 3.41 3.41-5.17 5.18-1.41 1.41z" fill="#5973ff"/><path d="m142 17.02h11v2h-11z" fill="#5973ff"/></svg>