<svg height="99" viewBox="0 0 93 99" width="93" xmlns="http://www.w3.org/2000/svg"><g fill="#fff"><path d="m56.58.21s-9.89 0-9.89 10.68v7.01c1.39-6.95 7.86-7.45 7.86-7.45h38.32v-10.24z"/><path d="m36.8 98.43s9.89 0 9.89-10.68v-7.01c-1.39 6.95-7.86 7.45-7.86 7.45h-38.32v10.24z"/><path d="m56.58 22.92s-9.89 0-9.89 10.68c0 9.15-8.48 9.18-8.48 9.18h-37.7v10.24h36.82s9.09 0 9.09-9.62 8.12-10.24 8.12-10.24h38.32v-10.24z"/><path d="m56.58 45.63s-9.89 0-9.89 10.68c0 9.15-8.48 9.18-8.48 9.18h-37.7v10.24h36.82s9.09 0 9.09-9.62 8.12-10.24 8.12-10.24h38.32v-10.24z"/></g></svg>